<svg id="wave" style="transform:rotate(180deg); transition: 0.3s" viewBox="0 0 1440 490" version="1.1" xmlns="http://www.w3.org/2000/svg"><defs><linearGradient id="sw-gradient-0" x1="0" x2="0" y1="1" y2="0"><stop stop-color="rgba(62, 132.637, 243, 1)" offset="0%"></stop><stop stop-color="rgba(11, 139.285, 255, 1)" offset="100%"></stop></linearGradient></defs><path style="transform:translate(0, 0px); opacity:1" fill="url(#sw-gradient-0)" d="M0,0L34.3,8.2C68.6,16,137,33,206,98C274.3,163,343,278,411,285.8C480,294,549,196,617,196C685.7,196,754,294,823,318.5C891.4,343,960,294,1029,294C1097.1,294,1166,343,1234,367.5C1302.9,392,1371,392,1440,392C1508.6,392,1577,392,1646,326.7C1714.3,261,1783,131,1851,106.2C1920,82,1989,163,2057,204.2C2125.7,245,2194,245,2263,245C2331.4,245,2400,245,2469,236.8C2537.1,229,2606,212,2674,245C2742.9,278,2811,359,2880,334.8C2948.6,310,3017,180,3086,147C3154.3,114,3223,180,3291,228.7C3360,278,3429,310,3497,277.7C3565.7,245,3634,147,3703,114.3C3771.4,82,3840,114,3909,106.2C3977.1,98,4046,49,4114,49C4182.9,49,4251,98,4320,114.3C4388.6,131,4457,114,4526,122.5C4594.3,131,4663,163,4731,155.2C4800,147,4869,98,4903,73.5L4937.1,49L4937.1,490L4902.9,490C4868.6,490,4800,490,4731,490C4662.9,490,4594,490,4526,490C4457.1,490,4389,490,4320,490C4251.4,490,4183,490,4114,490C4045.7,490,3977,490,3909,490C3840,490,3771,490,3703,490C3634.3,490,3566,490,3497,490C3428.6,490,3360,490,3291,490C3222.9,490,3154,490,3086,490C3017.1,490,2949,490,2880,490C2811.4,490,2743,490,2674,490C2605.7,490,2537,490,2469,490C2400,490,2331,490,2263,490C2194.3,490,2126,490,2057,490C1988.6,490,1920,490,1851,490C1782.9,490,1714,490,1646,490C1577.1,490,1509,490,1440,490C1371.4,490,1303,490,1234,490C1165.7,490,1097,490,1029,490C960,490,891,490,823,490C754.3,490,686,490,617,490C548.6,490,480,490,411,490C342.9,490,274,490,206,490C137.1,490,69,490,34,490L0,490Z"></path><defs><linearGradient id="sw-gradient-1" x1="0" x2="0" y1="1" y2="0"><stop stop-color="rgba(62, 157.162, 243, 1)" offset="0%"></stop><stop stop-color="rgba(11, 147.55, 255, 1)" offset="100%"></stop></linearGradient></defs><path style="transform:translate(0, 50px); opacity:0.9" fill="url(#sw-gradient-1)" d="M0,196L34.3,179.7C68.6,163,137,131,206,98C274.3,65,343,33,411,24.5C480,16,549,33,617,81.7C685.7,131,754,212,823,220.5C891.4,229,960,163,1029,122.5C1097.1,82,1166,65,1234,49C1302.9,33,1371,16,1440,16.3C1508.6,16,1577,33,1646,106.2C1714.3,180,1783,310,1851,326.7C1920,343,1989,245,2057,245C2125.7,245,2194,343,2263,359.3C2331.4,376,2400,310,2469,277.7C2537.1,245,2606,245,2674,261.3C2742.9,278,2811,310,2880,334.8C2948.6,359,3017,376,3086,375.7C3154.3,376,3223,359,3291,302.2C3360,245,3429,147,3497,130.7C3565.7,114,3634,180,3703,236.8C3771.4,294,3840,343,3909,326.7C3977.1,310,4046,229,4114,163.3C4182.9,98,4251,49,4320,98C4388.6,147,4457,294,4526,359.3C4594.3,425,4663,408,4731,359.3C4800,310,4869,229,4903,187.8L4937.1,147L4937.1,490L4902.9,490C4868.6,490,4800,490,4731,490C4662.9,490,4594,490,4526,490C4457.1,490,4389,490,4320,490C4251.4,490,4183,490,4114,490C4045.7,490,3977,490,3909,490C3840,490,3771,490,3703,490C3634.3,490,3566,490,3497,490C3428.6,490,3360,490,3291,490C3222.9,490,3154,490,3086,490C3017.1,490,2949,490,2880,490C2811.4,490,2743,490,2674,490C2605.7,490,2537,490,2469,490C2400,490,2331,490,2263,490C2194.3,490,2126,490,2057,490C1988.6,490,1920,490,1851,490C1782.9,490,1714,490,1646,490C1577.1,490,1509,490,1440,490C1371.4,490,1303,490,1234,490C1165.7,490,1097,490,1029,490C960,490,891,490,823,490C754.3,490,686,490,617,490C548.6,490,480,490,411,490C342.9,490,274,490,206,490C137.1,490,69,490,34,490L0,490Z"></path><defs><linearGradient id="sw-gradient-2" x1="0" x2="0" y1="1" y2="0"><stop stop-color="rgba(62, 144.9, 243, 1)" offset="0%"></stop><stop stop-color="rgba(11, 139.285, 255, 1)" offset="100%"></stop></linearGradient></defs><path style="transform:translate(0, 100px); opacity:0.8" fill="url(#sw-gradient-2)" d="M0,49L34.3,106.2C68.6,163,137,278,206,343C274.3,408,343,425,411,408.3C480,392,549,343,617,310.3C685.7,278,754,261,823,253.2C891.4,245,960,245,1029,277.7C1097.1,310,1166,376,1234,408.3C1302.9,441,1371,441,1440,416.5C1508.6,392,1577,343,1646,318.5C1714.3,294,1783,294,1851,269.5C1920,245,1989,196,2057,179.7C2125.7,163,2194,180,2263,171.5C2331.4,163,2400,131,2469,163.3C2537.1,196,2606,294,2674,277.7C2742.9,261,2811,131,2880,65.3C2948.6,0,3017,0,3086,0C3154.3,0,3223,0,3291,8.2C3360,16,3429,33,3497,40.8C3565.7,49,3634,49,3703,89.8C3771.4,131,3840,212,3909,228.7C3977.1,245,4046,196,4114,179.7C4182.9,163,4251,180,4320,187.8C4388.6,196,4457,196,4526,220.5C4594.3,245,4663,294,4731,294C4800,294,4869,245,4903,220.5L4937.1,196L4937.1,490L4902.9,490C4868.6,490,4800,490,4731,490C4662.9,490,4594,490,4526,490C4457.1,490,4389,490,4320,490C4251.4,490,4183,490,4114,490C4045.7,490,3977,490,3909,490C3840,490,3771,490,3703,490C3634.3,490,3566,490,3497,490C3428.6,490,3360,490,3291,490C3222.9,490,3154,490,3086,490C3017.1,490,2949,490,2880,490C2811.4,490,2743,490,2674,490C2605.7,490,2537,490,2469,490C2400,490,2331,490,2263,490C2194.3,490,2126,490,2057,490C1988.6,490,1920,490,1851,490C1782.9,490,1714,490,1646,490C1577.1,490,1509,490,1440,490C1371.4,490,1303,490,1234,490C1165.7,490,1097,490,1029,490C960,490,891,490,823,490C754.3,490,686,490,617,490C548.6,490,480,490,411,490C342.9,490,274,490,206,490C137.1,490,69,490,34,490L0,490Z"></path><defs><linearGradient id="sw-gradient-3" x1="0" x2="0" y1="1" y2="0"><stop stop-color="rgba(62, 175.556, 243, 1)" offset="0%"></stop><stop stop-color="rgba(11, 89.693, 255, 1)" offset="100%"></stop></linearGradient></defs><path style="transform:translate(0, 150px); opacity:0.7" fill="url(#sw-gradient-3)" d="M0,196L34.3,204.2C68.6,212,137,229,206,228.7C274.3,229,343,212,411,228.7C480,245,549,294,617,334.8C685.7,376,754,408,823,400.2C891.4,392,960,343,1029,318.5C1097.1,294,1166,294,1234,245C1302.9,196,1371,98,1440,65.3C1508.6,33,1577,65,1646,81.7C1714.3,98,1783,98,1851,138.8C1920,180,1989,261,2057,285.8C2125.7,310,2194,278,2263,277.7C2331.4,278,2400,310,2469,277.7C2537.1,245,2606,147,2674,138.8C2742.9,131,2811,212,2880,261.3C2948.6,310,3017,327,3086,318.5C3154.3,310,3223,278,3291,220.5C3360,163,3429,82,3497,73.5C3565.7,65,3634,131,3703,155.2C3771.4,180,3840,163,3909,204.2C3977.1,245,4046,343,4114,326.7C4182.9,310,4251,180,4320,114.3C4388.6,49,4457,49,4526,49C4594.3,49,4663,49,4731,73.5C4800,98,4869,147,4903,171.5L4937.1,196L4937.1,490L4902.9,490C4868.6,490,4800,490,4731,490C4662.9,490,4594,490,4526,490C4457.1,490,4389,490,4320,490C4251.4,490,4183,490,4114,490C4045.7,490,3977,490,3909,490C3840,490,3771,490,3703,490C3634.3,490,3566,490,3497,490C3428.6,490,3360,490,3291,490C3222.9,490,3154,490,3086,490C3017.1,490,2949,490,2880,490C2811.4,490,2743,490,2674,490C2605.7,490,2537,490,2469,490C2400,490,2331,490,2263,490C2194.3,490,2126,490,2057,490C1988.6,490,1920,490,1851,490C1782.9,490,1714,490,1646,490C1577.1,490,1509,490,1440,490C1371.4,490,1303,490,1234,490C1165.7,490,1097,490,1029,490C960,490,891,490,823,490C754.3,490,686,490,617,490C548.6,490,480,490,411,490C342.9,490,274,490,206,490C137.1,490,69,490,34,490L0,490Z"></path></svg>