<svg xmlns="http://www.w3.org/2000/svg" viewBox="0 0 1440 320"><path fill="#000b76" fill-opacity="1" d="M0,256L26.7,256C53.3,256,107,256,160,266.7C213.3,277,267,299,320,293.3C373.3,288,427,256,480,245.3C533.3,235,587,245,640,229.3C693.3,213,747,171,800,154.7C853.3,139,907,149,960,181.3C1013.3,213,1067,267,1120,272C1173.3,277,1227,235,1280,213.3C1333.3,192,1387,192,1413,192L1440,192L1440,320L1413.3,320C1386.7,320,1333,320,1280,320C1226.7,320,1173,320,1120,320C1066.7,320,1013,320,960,320C906.7,320,853,320,800,320C746.7,320,693,320,640,320C586.7,320,533,320,480,320C426.7,320,373,320,320,320C266.7,320,213,320,160,320C106.7,320,53,320,27,320L0,320Z"></path></svg>