<?xml version="1.0" encoding="utf-8"?>
<!-- Generator: Adobe Illustrator 23.0.3, SVG Export Plug-In . SVG Version: 6.00 Build 0)  -->
<svg version="1.1" xmlns="http://www.w3.org/2000/svg" xmlns:xlink="http://www.w3.org/1999/xlink" x="0px" y="0px"
	 viewBox="0 0 600 600" style="enable-background:new 0 0 600 600;" xml:space="preserve">
<style type="text/css">
	.st0{fill:#0C0C0C;}
	.st1{fill:#FFFFFF;stroke:#0C0C0C;stroke-width:0.75;stroke-miterlimit:10;}
	.st2{fill:#5185EC;}
	.st3{fill:none;stroke:#0C0C0C;stroke-width:0.75;stroke-miterlimit:10;}
	.st4{fill:none;stroke:#D4E2FF;stroke-miterlimit:10;}
	.st5{fill:#D4E2FF;}
	.st6{fill:#FFFFFF;}
	.st7{fill:#B1CEFC;}
</style>
<g id="background">
	<g id="ground">
		<g>
			<g>
				<path class="st0" d="M56.5,329.6c67.7-10.5,136.3-3.6,204,3.3c33.8,3.5,67.7,6.9,101.6,8.3c34.6,1.4,69.1-0.4,103.6-2.5
					c39.3-2.4,78.7-4.7,118-1.5c0.5,0,0.5-0.7,0-0.8c-70.1-5.8-140,6-210.1,4.3c-68.3-1.7-135.9-12.9-204.1-16.4
					c-37.8-1.9-75.8-1.4-113.3,4.5C55.8,328.9,56,329.6,56.5,329.6L56.5,329.6z"/>
			</g>
		</g>
	</g>
	<g id="bulb">
		<path class="st1" d="M386.9,74.5c0-12.5-9.3-22.6-20.7-22.6s-20.7,10.1-20.7,22.6c0,10.3,6.3,19,14.9,21.7v9.5h11.2v-9.4
			C380.4,93.7,386.9,85,386.9,74.5z"/>
		<rect x="357.4" y="104.6" class="st2" width="17.6" height="8.9"/>
		<line class="st3" x1="357.3" y1="107.4" x2="375.1" y2="107.4"/>
		<line class="st3" x1="357.4" y1="110.9" x2="374.6" y2="110.9"/>
		<line class="st3" x1="366.2" y1="103.8" x2="366.2" y2="72.1"/>
		<line class="st3" x1="358.9" y1="70.6" x2="366" y2="83.1"/>
		<line class="st3" x1="373.5" y1="70.4" x2="366.4" y2="82.9"/>
		<line class="st3" x1="322.5" y1="57.9" x2="337.2" y2="60.8"/>
		<line class="st3" x1="336.4" y1="39.7" x2="343.7" y2="48.3"/>
		<line class="st3" x1="354.1" y1="29.4" x2="357.1" y2="42"/>
		<line class="st3" x1="371" y1="41.3" x2="373.4" y2="31.9"/>
		<line class="st3" x1="381.2" y1="49.3" x2="392.1" y2="36.6"/>
		<line class="st3" x1="389.2" y1="58.3" x2="406.2" y2="50.8"/>
		<line class="st3" x1="392.1" y1="68.2" x2="402.4" y2="67.5"/>
		<line class="st3" x1="393.6" y1="76.7" x2="400.1" y2="79.7"/>
		<line class="st3" x1="326.2" y1="78.9" x2="338.5" y2="74.2"/>
		<line class="st3" x1="341.4" y1="83.4" x2="334.6" y2="91"/>
	</g>
	<g id="papers">
		<polygon class="st1" points="190.2,377.3 88,420.1 49.2,369.2 144.2,337 		"/>
		<path class="st1" d="M291.7,527c0.6-2.9,1.9-7.3,4.7-11.8c2-3.3,4.2-5.6,5.9-7.1c1.5,0.1,9.8,0.9,13.7,8.5c1.8,3.6,3,9.4,1.2,11.3
			c-1.4,1.5-3.1-0.5-7.8,0c-3.9,0.4-4.7,2-7.8,2.4C299.2,530.5,295.9,530.1,291.7,527z"/>
		<path class="st1" d="M81.5,502.9c-0.2-1.1,0.1-2,8.5-10.3c3.2-3.2,4.5-4.4,6.5-4.4c2.5,0.1,4.3,2.1,5.1,3.1
			c4.2-0.9,8.1-0.2,9.9,2.1c1.4,1.7,1.2,3.7,1.1,4.1c-0.8,6.7-14.3,13.6-24.2,10.6C87.4,507.8,82.1,506.1,81.5,502.9z"/>
		<path class="st1" d="M30,421.8c-2.1-4.8,0-12.8,4.7-13.1c2.4-0.1,2.9,1.8,6.2,2.1c5.2,0.5,7.3-3.7,10.7-2.7c2.6,0.8,3.6,4,4.7,7.8
			c1.1,3.4,1.8,5.7,0.9,7.5C54,429.8,33.4,429.5,30,421.8z"/>
		<g>
			<g>
				<path class="st0" d="M291.9,526.8c1.8-3.5,3.4-8.7,6.2-11.7c2.9-3.1,6.3-0.8,8.8,0.9c0.9,0.6,7.1,6.8,3.2,6.3
					c-1.8-0.2-3.7-2.8-5.9-1.5c-0.7,0.4-0.5,0.6-0.9,1.2c-0.2,0.2-0.1,0.6-0.2,0.8c-0.9,2.5-2.1,4.6-5.1,4.6c-0.5,0-0.5,0.7,0,0.8
					c1.8,0,3.3-0.6,4.5-2c0.6-0.7,0.6-1.3,1.1-2c0.1-1.8,1.4-2.6,3.7-2.5c1.1,0.4,2,0.9,2.9,1.6c2.5,0.7,3.3-0.5,2.1-2.9
					c-1.1-2.1-3-3.7-4.9-5c-1.5-1-4.9-3.5-6.9-3.2c-1.6,0.2-2.9,2.4-3.6,3.7c-2.1,3.4-3.7,7.1-5.5,10.6
					C291,526.8,291.6,527.2,291.9,526.8L291.9,526.8z"/>
			</g>
		</g>
		<g>
			<g>
				<path class="st0" d="M298.4,527.2c-1.6-1.8-1.5-4.5-0.1-6.4c1-1.5,3.6-3.3,5.5-3.3c0.4-0.2,0.8-0.1,1.1,0.4
					c-0.1,1.7-1,2.5-2.9,2.7c-0.6,0.1-0.8,0-1.3,0.3c-0.8,0.4-1.2,0.9-1.3,1.8c-0.1,0.5,0.6,0.7,0.7,0.2c0.1-0.8,2.1-1.4,2.7-1.5
					c0.3-0.1,0.6-0.1,0.8-0.2c0.5-0.2,0.9-0.6,1.3-1c0.7-1,1-2.3,0.5-3.4c-0.1-0.1-0.2-0.2-0.3-0.2c-2.6-0.2-6,1.7-7.4,3.9
					c-1.5,2.2-1.6,5.3,0.2,7.3C298.2,528.1,298.7,527.6,298.4,527.2L298.4,527.2z"/>
			</g>
		</g>
		<g>
			<g>
				<path class="st0" d="M101.1,491.7c0.4,0.9,0.8,1.6,1.4,2.3c0.6,0.6,2.1,1.2,2.4,1.7c1.5,2.9-0.8,3.6-3,4.4
					c-1,0.4-2.4,0.9-3.5,1.1c-2.2,0.3-3.4-1.2-5.6-1c-1.7,0.2-2.9,1.3-3.9,2.5c-1,1.2-2.4,2.8-0.8,3.8c0.4,0.2,1.9,0.1,2,0.1
					c1.8,0,2.9,0.2,4.7,0.3c1.9,0.2,2.4-0.3,4.3-1.4c0.4-0.2,0-0.9-0.4-0.6c-2.3,1.4-3.8,1-6.2,0.9c-0.9-0.1-3.9,0.6-4.3-0.8
					c-0.1-0.4,1.6-2.4,1.8-2.6c3.4-2.8,4.6-0.4,7.2-0.3c1.6,0,3.7-0.9,5.2-1.5c1.4-0.5,4.4-1.1,4.5-3.1c0-0.6-0.3-0.9-0.6-1.4
					c-1.4-1.9-3.7-2.2-4.9-4.8C101.5,490.9,100.9,491.3,101.1,491.7L101.1,491.7z"/>
			</g>
		</g>
		<g>
			<g>
				<path class="st0" d="M30,415.9c2.9-3.1,6.1-2.3,9.3-0.1c2.3,1.6,4.5,3.4,6.5,5.2c3.1,2.8,1,2-2.2,1.4c-3-0.6-5.9-1.6-8.8-2.8
					c-0.2-0.1-0.6,0-0.6,0.3c0.1,2.4,1.2,3.9,3.3,5c0.4,0.2,0.8-0.4,0.4-0.6c-1.6-0.6-2.3-1.7-2.2-3.5c0.4,0.2,0.9,0.4,1.3,0.5
					c1.2,0.1,2.7,0.9,3.8,1.2c2.6,0.7,5.3,1.1,8,1.3c0.3,0,0.5-0.4,0.3-0.6c-3.5-3.5-7.6-7.3-12-9.7c-3.2-1.7-5.4-0.6-7.7,1.9
					C29.2,415.7,29.7,416.2,30,415.9L30,415.9z"/>
			</g>
		</g>
		<g>
			<g>
				<path class="st0" d="M46.8,417.9c0.4-0.3,0.6-0.6,0.8-1c0.4-0.8,0.4-1.5,1.6-1.1c1.8,0.6,3.5,2.6,4.5,4.2c0.3,0.4,0.9,0,0.6-0.4
					c-1.1-1.8-3.1-4-5.2-4.7c-1.9-0.6-1.6,1.6-2.7,2.4C46.1,417.6,46.4,418.2,46.8,417.9L46.8,417.9z"/>
			</g>
		</g>
		<line class="st4" x1="71.3" y1="374.5" x2="91.5" y2="399.6"/>
		<line class="st4" x1="87" y1="360.2" x2="114.2" y2="393.8"/>
		<line class="st4" x1="107.6" y1="363.8" x2="122.2" y2="382.6"/>
		<line class="st4" x1="120.4" y1="352.3" x2="139.5" y2="377"/>
		<polygon class="st1" points="388.5,513.2 323.8,503.7 375.4,458.5 433.6,465.2 		"/>
		<polygon class="st1" points="251.5,536.2 139.5,536.2 163.2,479.9 275.2,479.9 		"/>
		<line class="st4" x1="352.2" y1="497.8" x2="375.6" y2="501.3"/>
		<line class="st4" x1="356.5" y1="486.9" x2="397.7" y2="492.7"/>
		<line class="st4" x1="358.7" y1="479" x2="405.2" y2="485.9"/>
		<line class="st4" x1="373.2" y1="470.4" x2="413.2" y2="476.1"/>
		<line class="st4" x1="260.5" y1="491" x2="247.8" y2="519.4"/>
		<line class="st4" x1="249.9" y1="484.7" x2="229" y2="527"/>
		<line class="st4" x1="232.8" y1="488.2" x2="218.6" y2="517.7"/>
		<line class="st4" x1="215.7" y1="488.2" x2="198.5" y2="524"/>
		<line class="st4" x1="173.3" y1="481.7" x2="154.7" y2="525.8"/>
		<line class="st4" x1="185.5" y1="488.2" x2="173.3" y2="517.8"/>
	</g>
	<g id="laptop">
		<polygon class="st1" points="532.5,491.9 457.5,471.7 528,403.3 589.9,407.1 		"/>
		<polygon class="st1" points="531.5,480.8 473.8,466.3 528.9,408.5 579.3,411 		"/>
		<line class="st3" x1="482.1" y1="468.4" x2="537.8" y2="408.9"/>
		<line class="st3" x1="494" y1="471.4" x2="548.7" y2="409.5"/>
		<line class="st3" x1="506" y1="474.4" x2="558.4" y2="410"/>
		<line class="st3" x1="517.9" y1="477.4" x2="567.9" y2="410.4"/>
		<line class="st3" x1="481.4" y1="458.3" x2="539.4" y2="469.3"/>
		<line class="st3" x1="498.2" y1="451.3" x2="546.3" y2="459.2"/>
		<line class="st3" x1="506.7" y1="442.2" x2="554.2" y2="447.6"/>
		<line class="st3" x1="515.8" y1="432.4" x2="561.3" y2="437.3"/>
		<line class="st3" x1="515.3" y1="422.7" x2="568.2" y2="427.1"/>
		<line class="st3" x1="522.2" y1="415.4" x2="574" y2="418.7"/>
		<polygon class="st1" points="589.9,407.1 532.5,491.9 473.8,418.5 546,346.7 		"/>
		<g>
			<g>
				<path class="st5" d="M532.1,421.6c-2.6-1-5.2-3.9-4.8-7c1.1-8.2,4.9-2.9,7-2.4c1.9,0.4,3.7,1.3,5.5,0c1.5-1.1,1.7-2.7,1.4-4.5
					c-0.3-2-1.7-4-0.7-6.1c3.3-6.7,8.2,0.2,9.6,3.2c0.8,1.8,3.4,0.2,2.6-1.5c-2.1-4.5-7.3-10-12.6-6.2c-1.6,1.1-2.5,3-2.8,4.8
					c-0.2,1.1-0.2,2.1,0,3.2c0.2,0.9,0.4,1.8,0.8,2.6c-1,2.2-2.3,2.5-3.8,1c-4.4-2.1-8.7-1.1-9.8,4.2c-1.1,5.1,2.2,9.7,6.8,11.5
					C533.1,425.2,533.9,422.3,532.1,421.6L532.1,421.6z"/>
			</g>
		</g>
		<path class="st0" d="M457.5,471.7c0.4,0.6,1.1,1.4,2.2,2.2c2.1,1.5,4.1,1.7,6.9,2.1c2.4,0.4,4.8,1,7.2,1.3c8.2,1,22.1,5.5,35.3,9
			c5.6,1.5,13.6,3.5,23.4,5.5"/>
		<path class="st0" d="M473.8,418.5c-0.3,0.6-0.6,1.1-1,1.7c39.5,48,59.4,72,59.7,71.8C532.7,491.7,513.1,467.3,473.8,418.5z"/>
	</g>
	<g id="book">
		<path class="st2" d="M455,408.9l-108.7,37.6c-0.8,0.3-1.8,0.2-2.5-0.3l-57.3-40.3c-1.9-1.3-1.4-4.3,0.9-4.9l102.1-26.2
			c0.6-0.2,1.3-0.1,1.8,0.2l63.9,28.9C457.4,404.8,457.3,408.1,455,408.9z"/>
		<path class="st6" d="M451.1,404.6L346.8,441c-0.8,0.3-1.7,0.2-2.4-0.3l-55-39c-1.8-1.3-1.3-4.1,0.9-4.7c8-4.3,21-9.9,37.7-10.6
			c6-0.3,11.5,0.2,16.2,0.9c5.9-3.2,13-6.7,21.4-9.6c8.4-3,16.1-4.8,22.7-6c0.2-0.1,0.5-0.1,0.9-0.1c0.3,0,0.6,0.1,0.9,0.2l61.3,28
			C453.5,400.7,453.3,403.8,451.1,404.6z"/>
		<g>
			<g>
				<path class="st0" d="M288.6,398.7c16.5-11.5,36.6-13.2,56.1-10.8c0.5,0.1,0.5-0.7,0-0.8c-19.6-2.4-39.9-0.7-56.5,10.9
					C287.9,398.4,288.2,399,288.6,398.7L288.6,398.7z"/>
			</g>
		</g>
		<g>
			<g>
				<path class="st0" d="M289.5,399.6c18.3,11.6,36.3,23.7,54,36.2c0.4,0.3,0.8-0.4,0.4-0.6c-17.7-12.5-35.7-24.6-54-36.2
					C289.5,398.7,289.1,399.3,289.5,399.6L289.5,399.6z"/>
			</g>
		</g>
		<g>
			<g>
				<path class="st0" d="M314.8,418.8c9.7,6.3,19.2,12.9,28.6,19.6c0.4,0.3,0.8-0.4,0.4-0.6c-9.4-6.7-18.9-13.3-28.6-19.6
					C314.7,417.8,314.4,418.5,314.8,418.8L314.8,418.8z"/>
			</g>
		</g>
		<g>
			<g>
				<path class="st0" d="M344.3,387.6c13.8-8.7,29.3-14,45.6-15.5c0.5,0,0.5-0.8,0-0.8c-16.4,1.5-32,6.8-46,15.6
					C343.5,387.2,343.9,387.9,344.3,387.6L344.3,387.6z"/>
			</g>
		</g>
		<g>
			<g>
				<path class="st0" d="M347.4,389.4c16.9,10.2,33.4,21.1,49.5,32.5c0.4,0.3,0.8-0.4,0.4-0.6c-16.1-11.4-32.7-22.2-49.5-32.5
					C347.3,388.5,346.9,389.2,347.4,389.4L347.4,389.4z"/>
			</g>
		</g>
		<g>
			<g>
				<path class="st0" d="M345.8,435.3c14.2-8.2,29.9-12.9,46.3-13.9c0.5,0,0.5-0.8,0-0.8c-16.5,0.9-32.3,5.7-46.6,14
					C345,434.9,345.4,435.6,345.8,435.3L345.8,435.3z"/>
			</g>
		</g>
		<g>
			<g>
				<path class="st0" d="M399,419.9c15-7.6,30.7-13.6,47-17.9c0.5-0.1,0.3-0.8-0.2-0.7c-16.4,4.3-32.1,10.3-47.2,17.9
					C398.2,419.5,398.6,420.1,399,419.9L399,419.9z"/>
			</g>
		</g>
		<g>
			<g>
				<path class="st0" d="M349.3,436.5c10.5-4.4,21.2-8.3,32-11.7c0.5-0.1,0.3-0.9-0.2-0.7c-10.8,3.4-21.5,7.3-32,11.7
					C348.7,436,348.9,436.7,349.3,436.5L349.3,436.5z"/>
			</g>
		</g>
		<g>
			<g>
				<path class="st0" d="M369.2,431.8c5.9-2.2,11.9-4.2,17.8-6.2c0.5-0.2,0.3-0.9-0.2-0.7c-6,2-11.9,4.1-17.8,6.2
					C368.6,431.3,368.8,432,369.2,431.8L369.2,431.8z"/>
			</g>
		</g>
		<g>
			<g>
				<path class="st0" d="M405.5,419c7.5-3.2,15.1-6.1,22.7-8.9c0.4-0.2,0.3-0.9-0.2-0.7c-7.7,2.9-15.3,5.8-22.9,9
					C404.7,418.6,405.1,419.2,405.5,419L405.5,419z"/>
			</g>
		</g>
		<g>
			<g>
				<path class="st0" d="M427.7,412.2c6.6-2.6,13.2-5.1,19.9-7.7c0.4-0.2,0.3-0.9-0.2-0.7c-6.6,2.6-13.2,5.1-19.9,7.7
					C427.1,411.6,427.3,412.3,427.7,412.2L427.7,412.2z"/>
			</g>
		</g>
		<g>
			<g>
				<path class="st0" d="M340,425.2c12.1-5.8,24.9-9.6,38.3-11.3c0.5-0.1,0.5-0.8,0-0.8c-13.5,1.7-26.4,5.6-38.6,11.4
					C339.2,424.7,339.6,425.4,340,425.2L340,425.2z"/>
			</g>
		</g>
		<g>
			<g>
				<path class="st0" d="M358.8,423.2c3-1.3,6.1-2.1,9.3-2.5c0.5-0.1,0.5-0.8,0-0.8c-3.4,0.4-6.6,1.3-9.7,2.6
					C358,422.8,358.4,423.4,358.8,423.2L358.8,423.2z"/>
			</g>
		</g>
		<g>
			<g>
				<path class="st0" d="M324.1,410c8.2-5.2,17.2-8,26.9-8.2c0.5,0,0.5-0.8,0-0.8c-9.8,0.2-19,3-27.2,8.3
					C323.3,409.6,323.7,410.3,324.1,410L324.1,410z"/>
			</g>
		</g>
		<g>
			<g>
				<path class="st0" d="M336.3,413.6c4.9-2.1,9.9-3.7,15-4.9c0.5-0.1,0.3-0.8-0.2-0.7c-5.1,1.2-10.1,2.8-15,4.9
					C335.6,413.1,335.8,413.8,336.3,413.6L336.3,413.6z"/>
			</g>
		</g>
		<g>
			<g>
				<path class="st0" d="M360.1,390.9c10.9-6.4,22.8-10.5,35.4-12.2c0.5-0.1,0.5-0.8,0-0.8c-12.7,1.7-24.7,5.8-35.8,12.3
					C359.3,390.5,359.7,391.1,360.1,390.9L360.1,390.9z"/>
			</g>
		</g>
		<g>
			<g>
				<path class="st0" d="M383,389.6c4.6-2,9.3-3.6,14.2-4.7c0.5-0.1,0.3-0.8-0.2-0.7c-5,1.1-9.8,2.7-14.4,4.8
					C382.2,389.1,382.6,389.8,383,389.6L383,389.6z"/>
			</g>
		</g>
		<g>
			<g>
				<path class="st0" d="M384.3,401.5c6.9-4.6,14.4-8,22.4-10.2c0.5-0.1,0.3-0.9-0.2-0.7c-8.1,2.2-15.6,5.6-22.6,10.3
					C383.5,401.1,383.9,401.8,384.3,401.5L384.3,401.5z"/>
			</g>
		</g>
		<g>
			<g>
				<path class="st0" d="M405.3,407.7c7.9-4.6,16.4-7.8,25.4-9.5c0.5-0.1,0.3-0.8-0.2-0.7c-9.1,1.7-17.6,4.9-25.6,9.6
					C404.5,407.3,404.9,408,405.3,407.7L405.3,407.7z"/>
			</g>
		</g>
		<g>
			<g>
				<path class="st0" d="M396.4,371.3c15.4,6.7,30.2,14.3,44.6,23c0.4,0.2,0.8-0.4,0.4-0.6c-14.3-8.6-29.2-16.3-44.6-23
					C396.3,370.5,396,371.2,396.4,371.3L396.4,371.3z"/>
			</g>
		</g>
	</g>
	<g id="pencil">
		<polygon class="st7" points="262.2,423.5 201,458.5 199.8,456.3 261,421.3 		"/>
		<g>
			<g>
				<path class="st6" d="M202.2,455.3c0.6,0.2,1.1,0.8,1.1,1.5c0,0.5,0.8,0.5,0.8,0c0-1-0.7-1.9-1.7-2.2
					C202,454.4,201.8,455.2,202.2,455.3L202.2,455.3z"/>
			</g>
		</g>
		<g>
			<g>
				<path d="M261.4,421.1c1.5-0.5,2.9-1,4.4-1.4c0.5-0.1,0.3-0.8-0.2-0.7c-1.5,0.4-3,0.9-4.4,1.4
					C260.7,420.5,260.9,421.2,261.4,421.1L261.4,421.1z"/>
			</g>
		</g>
		<g>
			<g>
				<path d="M263.4,423.2c1.1-0.9,2.1-1.9,3-3c0.3-0.4-0.2-0.9-0.5-0.5c-0.9,1.1-1.9,2-3,3C262.5,423,263,423.5,263.4,423.2
					L263.4,423.2z"/>
			</g>
		</g>
		<g>
			<g>
				<path d="M265,419.9c0.2,0.1,0.3,0.3,0.5,0.4c0.3,0.2,0.7,0,0.6-0.4c0-0.1-0.1-0.3-0.1-0.4c0,0.1-0.1,0.2-0.1,0.4c0,0,0,0,0,0
					c0.5,0.1,0.7-0.6,0.2-0.7c-0.3-0.1-0.5,0-0.8,0.2c-0.1,0.1-0.1,0.2-0.1,0.4c0,0.1,0.1,0.3,0.1,0.4c0.2-0.1,0.4-0.2,0.6-0.4
					c-0.2-0.1-0.3-0.3-0.5-0.4C265.2,419,264.6,419.5,265,419.9L265,419.9z"/>
			</g>
		</g>
	</g>
</g>
<g id="character">
	<g id="leg_right">
		<path class="st2" d="M136,414.9c-3.7,2.5-9.1,6.1-15.5,10.6c-25.6,17.8-38.4,26.7-37,30.4c2.3,6.3,37.6-1.5,42.6-2.6
			c16.2-3.6,29.1-8.3,37.7-11.9c0.9-5.8,1.8-11.7,2.6-17.5C156.3,420.8,146.2,417.9,136,414.9z"/>
		<g>
			<g>
				<path class="st6" d="M112.2,431.9c3.6,0.1,5.9,2.9,7.8,5.6c0.3,0.4,0.9,0,0.6-0.4c-2.1-3-4.6-5.9-8.5-6
					C111.7,431.2,111.7,431.9,112.2,431.9L112.2,431.9z"/>
			</g>
		</g>
		<g>
			<g>
				<path class="st6" d="M120,426.4c3.1,1.4,5.5,3.7,6.9,6.7c0.2,0.4,0.9,0.1,0.6-0.4c-1.5-3.1-4.1-5.6-7.2-7
					C119.9,425.5,119.6,426.2,120,426.4L120,426.4z"/>
			</g>
		</g>
		<g>
			<g>
				<path class="st6" d="M126.9,421.8c3.3,1.4,5.7,4.1,6.7,7.6c0.1,0.5,0.9,0.3,0.7-0.2c-1-3.6-3.6-6.6-7-8
					C126.8,421,126.5,421.7,126.9,421.8L126.9,421.8z"/>
			</g>
		</g>
		<g>
			<g>
				<path class="st6" d="M126.9,421.9c-1.8,0.6-5,1.2-6.7-0.3c0.7-3.9,2-4.7,3.9-2.5c0.3,0.3,0.7,0.5,1,0.8c0.9,0.8,1,1.2,2.1,0.9
					c0.2-0.1,0.3-0.4,0.5-0.5c1.4-1.1,2.8-3.6,5-3.3c1.6-0.6,1.9,0.4,1.1,2.9c-0.6,0.4-1.3,0.8-2,1.2c-1.7,0.9-3.4,1.4-5.3,1.9
					c-0.5,0.1-0.3,0.8,0.2,0.7c1.8-0.4,11.7-3.3,9.3-6.6c-2.8-4.1-7.8,3.2-10.4,2.4c-2-0.6-2.9-3.2-5.5-2.7
					c-1.3,0.3-2.1,1.2-2.2,2.5c-0.2,4.4,6.3,4.4,9.1,3.5C127.5,422.4,127.4,421.7,126.9,421.9L126.9,421.9z"/>
			</g>
		</g>
		<path class="st6" d="M199.3,251.3c-5.8,1.9-7.1,7.1-16,22.4c-4.6,7.9-4.3,6.6-8.3,13.3c-5.2,8.9-10.5,19.4-18.4,38.9
			c-3.1,7.7-10.2,25.4-18.6,51.6c-5.2,16-9,29.4-11.6,39c1,1.4,2.6,3.4,5.2,4.9c2.1,1.2,4.5,1.9,12,2c3.3,0.1,7.7,0,12.9-0.4
			c2.9-5.1,7.3-12.5,12.9-21.4c3-4.8,6.5-10.2,19.2-29.2c4.2-6.3,9.8-14.6,16.5-24.5c2.6,1.9,14.5,10,29.9,7.4
			c16.8-2.8,25.4-16.2,28-20.3c14.2-22.1,4.2-47.7,2.9-50.7c-9-7.4-16.9-12.4-22.4-15.6c-10.9-6.2-12.6-5.4-21.5-11.4
			c-2.3-1.6-5.2-3.6-9.6-5C209.4,251.4,204.2,249.8,199.3,251.3z"/>
		<g>
			<g>
				<path class="st0" d="M126.7,416.7c8.8-30.8,18.2-61.5,30.5-91.1c6.3-15.2,13.4-30.1,21.6-44.4c3.9-6.9,8.1-13.7,12.6-20.3
					c2.1-3.1,4.6-7.5,8.2-9.2c6.1-2.9,12.2,0.7,17.7,3.3c17.3,8,33.5,18,48.6,29.7c0.4,0.3,0.9-0.2,0.5-0.5
					c-13.7-10.6-28.4-19.9-43.9-27.5c-5.9-2.9-14.4-8.6-21.3-6.4c-5.8,1.8-9.3,8.6-12.4,13.3c-19.3,29.4-33.4,62-44.9,95.2
					c-6.6,19.1-12.4,38.4-17.9,57.8C125.9,417,126.6,417.2,126.7,416.7L126.7,416.7z"/>
			</g>
		</g>
		<g>
			<g>
				<path class="st0" d="M228.7,313.3c-24.9,35.6-49.1,71.7-72.5,108.3c-0.3,0.4,0.4,0.8,0.6,0.4c23.4-36.6,47.6-72.7,72.5-108.3
					C229.6,313.3,228.9,313,228.7,313.3L228.7,313.3z"/>
			</g>
		</g>
		<g>
			<g>
				<path class="st0" d="M129.4,420.5c7.4,5.3,16.2,4,24.6,2.3c0.5-0.1,0.3-0.8-0.2-0.7c-8.2,1.6-16.7,2.9-24-2.3
					C129.4,419.5,129,420.2,129.4,420.5L129.4,420.5z"/>
			</g>
		</g>
	</g>
	<g id="leg">
		<path class="st6" d="M280.4,270.1c4.9-0.4,27.7-1.7,46.7,14.6c17.5,14.9,20.7,35.2,21.9,42.4c1.6,10,0.8,18.4-0.1,24.1
			c-2.7,2.3-6.9,5.4-12.5,7.9c-8.9,3.9-16.7,4.2-21.8,4.4c-23.4,0.6-35,0.9-52.2-1c-30.4-3.3-45.7-5.2-48.4-12.7
			c-2.3-6.2,2.8-13.4,10.3-22.7C236,312.5,254.1,292.3,280.4,270.1z"/>
		<g>
			<g>
				<path class="st0" d="M245.5,361.6c19.8,1.7,39.8,2.9,59.7,2.6c15.4-0.2,31.3-2.2,43.9-11.7c0.4-0.3,0-0.9-0.4-0.6
					c-13.4,10.2-30.4,11.7-46.7,11.7c-18.9,0-37.7-1-56.5-2.6C245.1,360.8,245.1,361.5,245.5,361.6L245.5,361.6z"/>
			</g>
		</g>
	</g>
	<g id="hand_right">
		<path class="st6" d="M294.3,136.3c-0.1-1.6-0.3-3.7-0.4-6.2c-0.3-4.9-0.5-8.1,0.1-12c0.4-3,1-4.7,2.3-5.8c1.1-0.9,2.5-1.3,2.9-1.4
			c1.3-0.3,2.4-0.2,3.8,0c1.1,0.1,2.1,0.4,2.7,0.5c1.1-4.5,2.5-9.2,3.6-9.1c1.2,0.1,1.4,5.9,1.4,6.9c0.1,3.6-0.2,8.8-2.2,15
			c-0.1,1.4-0.2,3.5-0.8,5.9c-0.8,3.7-1.3,6-3,7.2C301,140.2,294.6,136.5,294.3,136.3z"/>
		<path class="st6" d="M353.9,165.2c-0.5-0.3-1.3-0.2-2.9-0.1c-4.5,0.3-7.3,2.2-12.3,4.8c-2.2,1.2-4.5,2.2-6.8,3.4
			c-0.6,0.3-5.2,2.6-14.3,7.1c-4.8,2.4-12.7,6.3-24.5,12c2.4-9.9,4.8-20,7.2-30.3c1.8-7.9,3.5-15.8,5.2-23.6
			c-0.6-0.6-1.5-1.3-2.5-1.8c-3.7-1.8-7.5-0.7-8.6-0.3c-0.7,1.6-1.9,4.4-3.3,7.8c-3.7,8.7-10.9,25.4-17.4,42.6
			c-5.6,14.9-0.2,2.1-4.2,14.2c-1.4,4.3-2.4,6.9-1.4,10c1.2,3.9,4.8,5.9,5.3,6.2c2.5,1.4,4.8,1.3,7.8,1.3c12.2-0.1-1.8,1.1,14,0.4
			c16.2-0.8,24.4-1.2,26.4-1.8c15.5-4.4,24.3-16.7,25.6-18.6C355.7,185.5,358.3,167.7,353.9,165.2z"/>
		<g>
			<g>
				<path class="st0" d="M350.9,164.7c-9.3,1.6-18.4,7.8-26.8,12c-9.8,4.9-19.6,9.8-29.5,14.6c-0.4,0.2-0.1,0.9,0.4,0.6
					c9.2-4.6,18.5-9.2,27.7-13.7c4.5-2.2,8.9-4.4,13.4-6.7c4.8-2.4,9.6-5.2,15-6.1C351.6,165.3,351.4,164.6,350.9,164.7L350.9,164.7
					z"/>
			</g>
		</g>
		<g>
			<g>
				<path class="st0" d="M294,191.2c4.1-17.5,8.1-35.1,11.9-52.7c0.1-0.5-0.6-0.7-0.7-0.2c-3.8,17.6-7.8,35.2-11.9,52.7
					C293.1,191.5,293.8,191.7,294,191.2L294,191.2z"/>
			</g>
		</g>
		<g>
			<g>
				<path class="st0" d="M294.4,136.7c3.4-1.1,6.9-0.7,10,1.1c0.4,0.2,0.8-0.4,0.4-0.6c-3.3-1.9-7-2.4-10.6-1.2
					C293.7,136.1,293.9,136.8,294.4,136.7L294.4,136.7z"/>
			</g>
		</g>
		<g>
			<g>
				<path class="st0" d="M292.7,139.3c-4.9,10.8-9.8,21.6-14.1,32.6c-4.3,11-9.4,23.1-10.9,34.9c-1.1,8.4,4.6,11,12,11.6
					c13.3,1.2,26.6,0.1,39.9-0.9c0.5,0,0.5-0.8,0-0.8c-10.4,0.8-20.7,1.6-31.1,1.3c-4.7-0.1-10.4,0.2-14.9-1.5
					c-8.1-3.1-4.5-12.8-2.9-19c5.5-20.1,14.2-39.1,22.7-58C293.5,139.3,292.9,138.9,292.7,139.3L292.7,139.3z"/>
			</g>
		</g>
		<g>
			<g>
				<path class="st0" d="M305.3,137.6c0.8-2.1,1.5-4.3,2.3-6.4c0.6-1.6,1.4-3.4,1.5-5.1c0-2.1-1.2-3.4-3.1-4.1
					c-1.2-0.4-4.5-1.1-5.4,0.3c-1.1,1.8,2.1,2.6,2.9,3.3c0.4,0.3,0.9-0.2,0.5-0.5c0.8,0.7-1.2-1-0.9-0.7c-0.3-0.3-1.1-1.5-0.6-2
					c0.3-0.3,1.9,0.1,2.2,0.2c2.2,0.4,3.8,1,3.5,4.4c-0.3,3.4-2.5,7.2-3.6,10.4C304.5,137.9,305.2,138.1,305.3,137.6L305.3,137.6z"
					/>
			</g>
		</g>
		<g>
			<g>
				<path class="st0" d="M293.8,123.4c0.2-2.4,0.2-4.9,0.9-7.2c0.3-1.3,0.9-2.6,1.8-3.6c1.1-1.5,2.4-1.2,3.9,0.9
					c0,0.7,0,1.5-0.2,2.2c-0.1,0.5,0.6,0.7,0.7,0.2c0.3-1.4,0.6-3.6-0.4-4.7c-1-1.1-2.7-0.6-3.7,0.2c-3.6,2.6-3.3,8.1-3.7,12.1
					C293,123.9,293.7,123.9,293.8,123.4L293.8,123.4z"/>
			</g>
		</g>
		<g>
			<g>
				<path class="st0" d="M300.7,111.2c1.1-0.9,2.4,0.1,2.8,1.2c0.4,1.1,0.2,2.2,0,3.3c-0.1,0.5,0.6,0.7,0.7,0.2
					c0.3-1.6,0.6-3.5-0.6-4.9c-0.9-1-2.3-1.2-3.4-0.4C299.8,111,300.3,111.5,300.7,111.2L300.7,111.2z"/>
			</g>
		</g>
		<g>
			<g>
				<path class="st0" d="M304,111.6c0.8-0.3,1.5,0.1,1.9,0.8c0.4,0.9,0.2,1.9,0.1,2.9c-0.1,0.5,0.6,0.7,0.7,0.2
					c0.2-1.2,0.5-2.7-0.4-3.8c-0.6-0.8-1.6-1.2-2.5-0.8C303.3,111,303.5,111.8,304,111.6L304,111.6z"/>
			</g>
		</g>
		<g>
			<g>
				<path class="st0" d="M305.9,111.5c0.3-1.7,0.7-3.4,1.3-5c0.5-1.3,0.5-2.5,2.1-2.3c1.7,0.2,1.2,1.5,1.2,3
					c-0.2,4.3-1.3,8.7-2.1,12.8c-0.1,0.5,0.6,0.7,0.7,0.2c0.8-3.9,1.5-7.8,2-11.7c0.3-2.3,0.5-4.8-1.2-6.6c-0.1-0.1-0.2-0.1-0.4-0.1
					c-2.9,1.2-3.8,6.9-4.3,9.5C305.1,111.8,305.9,112,305.9,111.5L305.9,111.5z"/>
			</g>
		</g>
	</g>
	<g id="torso">
		<path class="st6" d="M353.9,165.2c-2.3,1.8-5.2,4.5-8.3,8c-2.2,2.5-3.9,4.9-5.8,7.6c-4.1,6.1-6.9,11.6-9.7,17.4
			c-5.5,11.2-10.5,21.6-15.8,36.4c-1.1,3.1-2,5.7-2.6,7.5c-2.9,2-6.8,4.7-11.3,8c-4.4,3.3-8.6,6.4-13.7,10.8
			c-3,2.6-6.9,6.1-11.3,10.6c3.5-0.6,8.6-1,14.7-0.3c11,1.3,19.1,5.7,23.7,8.7c6.4,4.3,10.3,8.8,12.4,11.4c3.1,3.7,6.4,8.5,10,16.3
			c7.8,17,11.3,35.9,12.6,44.5c2.7-2.6,6.5-6.4,10.8-11.4c10.5-12.2,16.4-22.9,23.6-36.1c7.9-14.4,12.7-25.7,14.3-29.7
			c1.2-2.8,5.4-13.1,9.7-27.2c3-9.7,6.3-22.1,9.1-36.6c-4.3-5.6-10.7-13.1-19.6-20.6c-1.9-1.6-5.5-4.7-10.2-8
			C379.7,177.4,368.8,170.7,353.9,165.2z"/>
		<g>
			<g>
				<path class="st0" d="M353.8,165.5c24.7,9.2,46.3,25,62.4,45.8c0.3,0.4,0.8-0.2,0.5-0.5c-16.2-20.9-38-36.8-62.8-46
					C353.6,164.6,353.4,165.4,353.8,165.5L353.8,165.5z"/>
			</g>
		</g>
		<g>
			<g>
				<path class="st0" d="M341.5,177.4c-12.5,20.3-22.6,41.9-30.1,64.6c-0.2,0.5,0.6,0.7,0.7,0.2c7.5-22.6,17.6-44.1,30-64.4
					C342.4,177.3,341.7,176.9,341.5,177.4L341.5,177.4z"/>
			</g>
		</g>
		<g>
			<g>
				<path class="st0" d="M307.7,244.4c-11.5,7.9-22.4,16.6-32.6,26.2c-0.4,0.3,0.2,0.9,0.5,0.5c10.2-9.5,21-18.2,32.4-26.1
					C308.5,244.8,308.1,244.1,307.7,244.4L307.7,244.4z"/>
			</g>
		</g>
		<g>
			<g>
				<path class="st0" d="M275.6,271.8c20.3-3.5,40.7,6.1,52.6,22.4c11.7,16.1,17.6,37.6,20.4,57c0.1,0.5,0.8,0.3,0.7-0.2
					c-3-20.9-9.5-44.5-23.5-61c-12.2-14.4-31.7-22.2-50.5-19C274.9,271.1,275.1,271.9,275.6,271.8L275.6,271.8z"/>
			</g>
		</g>
		<g>
			<g>
				<path class="st0" d="M414.2,218.8c-9.6,48.7-31.4,94.4-63.4,132.3c-0.3,0.4,0.2,0.9,0.5,0.5c32-38.1,54-83.9,63.6-132.7
					C415,218.6,414.3,218.4,414.2,218.8L414.2,218.8z"/>
			</g>
		</g>
		<g>
			<g>
				<path class="st5" d="M350,200.9c9.5,5.7,19.3,10.8,29.3,15.5c0.4,0.2,0.8-0.4,0.4-0.6c-10-4.6-19.8-9.8-29.3-15.5
					C350,200,349.6,200.7,350,200.9L350,200.9z"/>
			</g>
		</g>
		<g>
			<g>
				<path class="st5" d="M343.6,217.5c6.5,4.5,13.4,8.2,20.7,11.1c0.4,0.2,0.6-0.5,0.2-0.7c-7.3-2.9-14.1-6.6-20.5-11.1
					C343.5,216.6,343.2,217.3,343.6,217.5L343.6,217.5z"/>
			</g>
		</g>
		<g>
			<g>
				<path class="st5" d="M324,229.8c16.1,10.5,32.9,19.9,50.2,28.3c0.4,0.2,0.8-0.4,0.4-0.6c-17.3-8.4-34.1-17.8-50.2-28.3
					C324,228.9,323.6,229.6,324,229.8L324,229.8z"/>
			</g>
		</g>
	</g>
	<g id="leg_left">
		<path class="st2" d="M160.3,420.5c-3.7,2.5-9.1,6.1-15.5,10.6c-25.6,17.8-38.4,26.7-37,30.4c2.3,6.3,37.6-1.5,42.6-2.6
			c16.2-3.6,29.1-8.3,37.7-11.9c0.9-5.8,1.8-11.7,2.6-17.5C180.5,426.4,170.4,423.4,160.3,420.5z"/>
		<g>
			<g>
				<path class="st6" d="M136.4,437.5c3.6,0.1,5.9,2.9,7.8,5.6c0.3,0.4,0.9,0,0.6-0.4c-2.1-3-4.6-5.9-8.5-6
					C135.9,436.7,135.9,437.5,136.4,437.5L136.4,437.5z"/>
			</g>
		</g>
		<g>
			<g>
				<path class="st6" d="M144.2,432c3.1,1.4,5.5,3.7,6.9,6.7c0.2,0.4,0.9,0.1,0.6-0.4c-1.5-3.1-4.1-5.6-7.2-7
					C144.2,431.1,143.8,431.8,144.2,432L144.2,432z"/>
			</g>
		</g>
		<g>
			<g>
				<path class="st6" d="M151.1,427.4c3.3,1.4,5.7,4.1,6.7,7.6c0.1,0.5,0.9,0.3,0.7-0.2c-1-3.6-3.6-6.6-7-8
					C151.1,426.6,150.7,427.2,151.1,427.4L151.1,427.4z"/>
			</g>
		</g>
		<g>
			<g>
				<path class="st6" d="M151.1,427.4c-1.8,0.6-5,1.2-6.7-0.3c0.7-3.9,2-4.7,3.9-2.5c0.3,0.3,0.7,0.5,1,0.8c0.9,0.8,1,1.2,2.1,0.9
					c0.2-0.1,0.3-0.4,0.5-0.5c1.4-1.1,2.8-3.6,5-3.3c1.6-0.6,1.9,0.4,1.1,2.9c-0.6,0.4-1.3,0.8-2,1.2c-1.7,0.9-3.4,1.4-5.3,1.9
					c-0.5,0.1-0.3,0.8,0.2,0.7c1.8-0.4,11.7-3.3,9.3-6.6c-2.8-4.1-7.8,3.2-10.4,2.4c-2-0.6-2.9-3.2-5.5-2.7
					c-1.3,0.3-2.1,1.2-2.2,2.5c-0.2,4.4,6.3,4.4,9.1,3.5C151.8,428,151.6,427.3,151.1,427.4L151.1,427.4z"/>
			</g>
		</g>
		<path class="st6" d="M157.4,423.4c5.7-18.7,11.4-34.1,16-45.4c5.8-14.4,10.9-25.3,21.2-47.1c6.7-14.2,12.1-24.9,18.4-36.6
			c14.9-27.6,8-10,20.6-31.4c1.8-3.1,5.1-8.8,11.7-12c5.4-2.6,10.7-2.4,12.6-2.3c3.4,0.2,6.7,1,15.2,5.1c5.6,2.7,11,5.3,17,9.3
			c16.8,11.1,30.6,27.8,34.7,32.8c2,4.7,5.1,14.4,1.4,24c-5.9,15.4-27.1,25.2-51.2,20.1c-5.4,6.3-13.7,15.8-24.1,27.4
			c-10.9,12.1-17.1,18.5-30.5,33c-7.2,7.8-17.6,19.1-30.2,33c-2.2,0.2-5.3,0.4-9,0.3c-6.3-0.2-10.5-0.3-15-2.5
			C164.1,430,160.6,427.9,157.4,423.4z"/>
		<g>
			<g>
				<path class="st0" d="M158.1,422.1c11.7-36,26.3-71,43.7-104.7c8.6-16.6,17.4-33.3,28-48.7c5.5-8,12.9-19.3,23.6-20
					c9.1-0.6,18.6,4.6,26.4,8.7c17.6,9.3,32.9,22.6,44.7,38.6c0.3,0.4,0.9,0,0.6-0.4c-10.3-14-23.1-25.9-38-34.9
					c-12.1-7.3-31.4-19.1-44.6-8.3c-7.1,5.8-12.5,14.2-17.3,21.9c-5.5,8.7-10.6,17.6-15.5,26.6c-10.2,18.5-19.5,37.4-28,56.7
					c-9.2,21-17.3,42.5-24.4,64.3C157.2,422.4,157.9,422.6,158.1,422.1L158.1,422.1z"/>
			</g>
		</g>
		<g>
			<g>
				<path class="st0" d="M190.5,433.5c28.3-31,56.7-62,85-93c0.3-0.4-0.2-0.9-0.5-0.5c-28.3,31-56.7,62-85,93
					C189.7,433.3,190.2,433.9,190.5,433.5L190.5,433.5z"/>
			</g>
		</g>
		<g>
			<g>
				<path class="st0" d="M158.3,424.3c6.5,10.3,19,10.6,29.8,8.7c0.5-0.1,0.3-0.8-0.2-0.7c-10.5,1.8-22.6,1.6-29-8.4
					C158.7,423.5,158,423.8,158.3,424.3L158.3,424.3z"/>
			</g>
		</g>
		<g>
			<g>
				<path class="st6" d="M111.4,456.3c6.8-6.5,14.2-12.5,22-17.8c0.4-0.3,0-0.9-0.4-0.6c-7.9,5.3-15.3,11.3-22.1,17.9
					C110.5,456.1,111,456.6,111.4,456.3L111.4,456.3z"/>
			</g>
		</g>
	</g>
	<g id="head">
		<path class="st6" d="M370.5,156c-0.7,1.7-1.5,3.8-2.2,6.2c-1.1,3.5-1.6,5.3-1.5,7.7c0,1.1,0.1,3.6,1.4,6.4c1.8,4,5,6,6.6,6.9
			c1.9,1.2,3.7,1.8,4.8,2.1c0.1,0.7,0.1,1.3,0.2,2c-1-0.6-2.3-0.6-3.3,0c-0.9,0.6-1.5,1.7-1.3,2.7c0.3,1.6,2.6,2.2,3.8,2.5
			c2.9,0.8,5.4,0,6.9-0.5c1.6-0.5,2.7-0.9,3.9-1.9c2.5-2.2,2.6-5.6,2.6-6.6c3.7-1.9,6.2-4,7.6-5.5c1.4-1.5,2-2.4,2.3-3.1
			c1.3-2.5,1.2-4.9,1.2-6c-0.2-4.8-3-8.3-4.4-9.9c-1.6-2-6.7-8.1-15.1-8.3C376.6,150.5,371.7,154.8,370.5,156z"/>
		<path d="M428.5,155.5c0.1,6.3-2.6,15.8-9.7,18.5c-4.7,1.8-9.2-0.2-14.1-2.3c-2.9-1.3-16.6-7.2-18.3-18.7
			c-0.5-3.7,0.1-9.1,2.9-10.4c3.1-1.5,6.7,3.2,10.3,1.5c2.4-1.1,1.8-3.7,4.3-5.9c3.5-3.3,10-2.8,14.2-1.1
			C425.7,140.3,428.4,149.4,428.5,155.5z"/>
		<path d="M369.6,159.4c0.4-0.6,3.6-4.7,7.7-5.5c1.1-0.2,3.3-0.6,5.1,0.6c0.6,0.4,1.6,1.4,2.8,7.9c0.8,4.5,0.5,5,1.3,7.6
			c0.8,2.5,1.6,4.8,3.9,6.2c0.3,0.2,2.3,1.3,4.7,0.9c1.1-0.2,1.7-0.6,3.8-1.8c1.7-0.9,3.1-1.6,4.1-2.1c0.5-1.2,1.1-2.9,1.4-5
			c0.2-1.2,0.3-3.2,0-5.6c-0.2-1-0.9-5.3-3.8-8.8c-1.6-1.9-4.3-4.1-11.4-5.8c-8.2-2-23.6-3.6-25.5,1.4
			C363.1,151.1,363.7,153.9,369.6,159.4z"/>
		<g>
			<g>
				<path d="M369.2,159.2c-3.7,7-4.4,15.6,1.6,21.6c5.2,5.2,15.2,7.4,21.5,3.1c0.4-0.3,0-0.9-0.4-0.6c-6,4-15.8,2.1-20.6-3
					c-5.7-5.8-5-13.9-1.5-20.7C370.1,159.1,369.5,158.8,369.2,159.2L369.2,159.2z"/>
			</g>
		</g>
		<g>
			<g>
				<path d="M379.1,185.3c0.1,1.1,0.2,2.1,0.4,3.2c0.1,0.5,0.8,0.5,0.8,0c-0.1-1.1-0.2-2.1-0.4-3.2
					C379.8,184.8,379,184.8,379.1,185.3L379.1,185.3z"/>
			</g>
		</g>
		<g>
			<g>
				<path d="M376.1,187c-2.3,2.3-1.4,4.4,1.6,5.6c3.4,1.3,8.3,0.2,11.3-1.6c0.4-0.3,0-0.9-0.4-0.6c-2,1.2-4.2,1.7-6.5,1.9
					c-1.1,0.1-2.3,0.2-3.3-0.1c-1.7-0.4-4.7-2-2.1-4.6C377,187.2,376.5,186.7,376.1,187L376.1,187z"/>
			</g>
		</g>
		<g>
			<g>
				<path d="M373.4,163.7c-2,3.2-2.8,6.9-2.2,10.6c0.1,0.5,0.8,0.3,0.7-0.2c-0.6-3.6,0.1-7,2.1-10
					C374.4,163.7,373.7,163.3,373.4,163.7L373.4,163.7z"/>
			</g>
		</g>
		<g>
			<g>
				<path d="M373.3,153.7c7.3-5.6,19-8.2,26-0.7c6.3,6.7,6.2,16.6,1.1,23.9c-0.3,0.4,0.4,0.8,0.6,0.4c5.6-8,5.2-19-2.2-25.8
					c-7.4-6.7-18.9-3.7-26,1.8C372.4,153.5,372.9,154,373.3,153.7L373.3,153.7z"/>
			</g>
		</g>
		<g>
			<g>
				<path d="M372,156c1.2-0.6,2.4-1.4,3.7-1.8c0.9-0.2,1.8-0.4,2.7-0.5c1.9,1.5,3.8,3,5.7,4.5c0.9,1.7,0.6,4.4,0.9,6.3
					c0.5,3.4,0.9,7.8,3.4,10.5c4.8,5.4,9.4,0.7,14.1-1.5c0.4-0.2,0.1-0.9-0.4-0.6c-1.7,0.8-3.2,2.6-4.9,3.2c-5.4,2-8.8-1.3-10.3-6.1
					c-1.3-4.2-0.6-9.3-2.5-13.3c-2.6-5.4-8.6-3.4-12.8-1.2C371.2,155.6,371.5,156.3,372,156L372,156z"/>
			</g>
		</g>
		<ellipse transform="matrix(0.4454 -0.8953 0.8953 0.4454 57.9653 423.1159)" cx="370.5" cy="164.8" rx="1.3" ry="0.8"/>
		<ellipse transform="matrix(0.4454 -0.8953 0.8953 0.4454 60.2254 431.9536)" cx="378.8" cy="167.4" rx="1.3" ry="0.8"/>
		<g>
			<g>
				<path d="M370.8,159.4c0.9-1,2.5-0.8,2.9,0.6c0.1,0.5,0.9,0.3,0.7-0.2c-0.6-1.9-2.9-2.4-4.2-0.9
					C369.9,159.2,370.4,159.7,370.8,159.4L370.8,159.4z"/>
			</g>
		</g>
		<g>
			<g>
				<path d="M379.2,161.4c1.7-1,3.1,1,3.3,2.5c0.1,0.5,0.8,0.5,0.8,0c-0.1-1.1-0.5-2.2-1.5-2.9c-0.9-0.6-2-0.7-2.9-0.2
					C378.4,161,378.8,161.7,379.2,161.4L379.2,161.4z"/>
			</g>
		</g>
		<path class="st6" d="M396.3,150.4c3.4-0.8,6.8,0.6,8.7,3.3c2.1,3,1.9,7.2-0.5,10.1c0.1-0.4,1.6-5.8-1.9-10
			C400.3,151.2,397.2,150.6,396.3,150.4z"/>
	</g>
	<g id="hand_left">
		<path class="st6" d="M391,351.8c0.4,1.9,0.7,3.4,0.9,4.5c0.4,2.5,0.4,3.2,0.9,4.3c0.3,0.6,1,2.4,2.6,3.6c1.2,0.9,2.4,1.1,5.8,1.3
			c5,0.3,7.5,0.5,10.7,0.3c1.6-0.1,3.1-0.3,6.1-0.7c6.5-0.8,9.8-1.2,11.8-2c3.8-1.4,9-4.5,8.5-6.7c-0.1-0.5-0.5-1.5-6.9-3
			c-6.7-1.6-12-1.8-12.3-1.8c-7.4-0.3-9.4,0.7-16.9,0.7C397.3,352.4,393.4,352.1,391,351.8z"/>
		<path class="st6" d="M392.8,185.4c-1.9,3.5-2.5,6.6-2.9,8.5c-1,5.1-0.4,8.2-0.2,12.8c0.2,6.2-0.6,9.4-1.4,15.8
			c-1.9,15.3-1.9,32.7-1.9,49.3c0,14.4,0.5,25.3,0.6,28.6c0.6,13.6,1.9,31.2,4.7,51.8c0.4,0.4,1.9,1.6,4.2,1.6
			c2.1,0.1,3.6-0.9,4-1.2c0.3-1.5,0.8-3.7,1.4-6.5c2.4-11.1,4-18.4,5.2-24c3.7-16.8,5.6-26.3,7.3-36.2c0.7-4.2,1.7-10.6,1-18.9
			c-0.4-4.4-1.1-7.9-1.6-10.4c0.3-1.8,0.7-4.5,1.3-7.7c0.8-4.8,4.8-24,5.4-27.3c4.9-24,1.9-14.4,4.2-24.4c0.6-2.5,1.9-7.9,0.3-14.3
			c-1.3-5.2-3.5-7.3-4.1-7.8c-3.2-2.7-7.1-2.7-8.7-2.7c-5.5,0-9.4,2.9-11.6,4.5C399,177.6,395.5,180.4,392.8,185.4z"/>
		<g>
			<g>
				<path class="st0" d="M391,190.7c2.7-9,10.4-17.3,20.2-17.9c13.9-0.9,13.7,14.1,12.6,23.9c-2.1,19-6.9,37.8-10.6,56.5
					c-0.1,0.5,0.6,0.7,0.7,0.2c2.6-13,5.2-26,7.7-39c1.1-5.6,2.1-11.2,2.7-16.8c0.7-5.6,1.5-11.8-0.4-17.2
					c-2.7-7.5-10.1-9.8-17.3-7.5c-8.2,2.6-14.1,9.6-16.5,17.6C390.2,191,390.9,191.2,391,190.7L391,190.7z"/>
			</g>
		</g>
		<g>
			<g>
				<path class="st0" d="M389.3,206.7c-4.7,47.6-4.3,95.6,1.4,143.1c0.1,0.5,0.8,0.5,0.8,0c-5.7-47.5-6.2-95.5-1.4-143.1
					C390.1,206.2,389.4,206.2,389.3,206.7L389.3,206.7z"/>
			</g>
		</g>
		<g>
			<g>
				<path class="st0" d="M413.3,257.8c2.9,16,0,32-3.4,47.7c-3.2,14.9-6.5,29.9-9.8,44.8c-0.1,0.5,0.6,0.7,0.7,0.2
					c3.5-16.2,7.2-32.3,10.6-48.5c3.1-14.6,5.3-29.5,2.6-44.3C413.9,257.1,413.2,257.3,413.3,257.8L413.3,257.8z"/>
			</g>
		</g>
		<g>
			<g>
				<path class="st0" d="M391.5,352.5c2.5,2.1,6,2.3,8.7,0.5c0.4-0.3,0-0.9-0.4-0.6c-2.4,1.6-5.5,1.5-7.8-0.4
					C391.7,351.7,391.1,352.2,391.5,352.5L391.5,352.5z"/>
			</g>
		</g>
		<g>
			<g>
				<path class="st0" d="M391.5,356.5c0.8,2.4,0.5,5.5,2.4,7.3c1.8,1.7,5.1,1.9,7.5,2.2c9.1,1.2,18.2-0.6,27.1-2.3
					c0.5-0.1,0.3-0.8-0.2-0.7c-6.7,1.3-13.5,2.6-20.4,2.6c-3.3,0-6.9,0-10-1c-5.3-1.7-4.3-4.4-5.6-8.3
					C392.1,355.8,391.3,356,391.5,356.5L391.5,356.5z"/>
			</g>
		</g>
		<g>
			<g>
				<path class="st0" d="M415.5,360.1c4.4-0.6,8.8-1.1,12.7,1.5c0.4,0.3,0.8-0.4,0.4-0.6c-4-2.6-8.6-2.2-13.1-1.6
					C415.1,359.4,415.1,360.2,415.5,360.1L415.5,360.1z"/>
			</g>
		</g>
		<g>
			<g>
				<path class="st0" d="M402.2,352.8c5.8-0.3,11.6-0.7,17.4-0.7c6.8-0.1,12.4,1.9,18.5,4.8c0.4,0.2,0.8-0.4,0.4-0.6
					c-5-2.4-10-4.6-15.6-4.9c-6.8-0.4-13.8,0.4-20.6,0.7C401.7,352,401.7,352.8,402.2,352.8L402.2,352.8z"/>
			</g>
		</g>
		<g>
			<g>
				<path class="st0" d="M419,356.5c5.8-0.2,11.6,0.5,17.2,2.1c0.5,0.1,0.7-0.6,0.2-0.7c-5.7-1.6-11.5-2.3-17.4-2.1
					C418.6,355.8,418.6,356.5,419,356.5L419,356.5z"/>
			</g>
		</g>
		<g>
			<g>
				<path class="st0" d="M422,353.8c4.7,0.3,9.2,1,13.7,2.3c0.5,0.1,0.7-0.6,0.2-0.7c-4.6-1.3-9.2-2.1-13.9-2.3
					C421.6,353.1,421.6,353.8,422,353.8L422,353.8z"/>
			</g>
		</g>
	</g>
</g>
</svg>
